<svg width="300" height="165" viewBox="0 0 300 165" fill="none" xmlns="http://www.w3.org/2000/svg">
<g clip-path="url(#clip0_1017_855)">
<path d="M294.929 0.000689168C296.306 0.000689168 297.496 0.502526 298.497 1.5062C299.499 2.50988 299.999 3.70174 299.999 5.08179V34.3915C299.413 35.7559 299.029 36.9634 298.028 37.9671C297.026 38.9708 295.837 39.4726 294.459 39.4726H264.827C262.719 39.4726 261.01 41.1819 261.01 43.2904V43.6999C261.01 45.8084 262.719 47.5177 264.827 47.5177H283.896C285.273 47.5177 286.462 48.0195 287.464 49.0232C288.466 50.0269 288.966 51.2187 288.966 52.5988V84.3087C288.966 85.6887 288.466 86.8806 287.464 87.8842C286.462 88.8879 285.273 89.3897 283.896 89.3897H264.827C262.719 89.3897 261.01 91.099 261.01 93.2075V126.651C261.01 128.031 260.509 129.223 259.507 130.227C258.506 131.23 257.316 131.732 255.939 131.732H220.059C218.682 131.732 217.492 131.23 216.491 130.227C215.489 129.223 214.988 128.031 214.988 126.651V5.0811C214.988 3.70105 215.489 2.50919 216.491 1.50551C217.492 0.501837 218.682 0 220.059 0L294.929 0.000689168Z" fill="#002A5E"/>
<path d="M139.593 125.427C137.96 129.696 135.136 131.831 131.118 131.831H95.2853C94.1553 131.831 93.1509 131.454 92.2721 130.701C91.5187 129.822 91.1421 128.817 91.1421 127.687L91.3304 126.557L132.386 6.2151C132.888 4.58292 133.83 3.13906 135.211 1.88353C136.592 0.628005 138.475 0.000244141 140.861 0.000244141H197.268C199.654 0.000244141 201.537 0.628005 202.918 1.88353C204.299 3.13906 205.241 4.58292 205.743 6.2151L206.964 126.557L207.153 127.687C207.153 128.817 206.713 129.822 205.834 130.701C205.081 131.454 204.139 131.831 203.01 131.831H176.081C172.064 131.831 172.315 129.712 172.315 125.427V120.719C172.315 119.159 171.05 117.894 169.49 117.894H145.077C144.003 117.894 143.022 118.503 142.545 119.465L139.593 125.427ZM172.315 40.401C172.315 37.4941 168.262 36.7933 167.286 39.5315L147.062 96.2661C146.376 98.1908 148.085 100.115 150.077 99.6603L170.301 95.0478C171.479 94.7791 172.315 93.7314 172.315 92.5231V40.401Z" fill="#002A5E"/>
<path d="M120.329 0.000244141C121.709 0.000244141 122.9 0.502081 123.904 1.50576C124.907 2.50943 125.409 3.7013 125.409 5.08135L114.355 35.3798C113.955 36.8147 113.147 37.9517 112.144 38.9553C111.14 39.959 109.949 40.4609 108.569 40.4609H87.3414C84.8329 40.4609 82.7994 42.4944 82.7994 45.0029V126.651C82.7994 128.031 82.2976 129.223 81.2941 130.227C80.2906 131.231 79.0989 131.732 77.7191 131.732H38.958C37.5781 131.732 36.3864 131.231 35.3829 130.227C34.3794 129.223 33.8776 128.031 33.8776 126.651V45.0029C33.8776 42.4944 31.8441 40.4609 29.3356 40.4609H5.08034C3.70049 40.4609 2.50881 39.959 1.50529 38.9553C0.501762 37.9517 0 36.7598 0 35.3798V5.08135C0 3.7013 0.501762 2.50943 1.50529 1.50576C2.50881 0.502081 3.70049 0.000244141 5.08034 0.000244141H120.329Z" fill="#002A5E"/>
<path d="M7.09551 163.831C6.92884 163.831 6.78718 163.772 6.67051 163.656C6.55384 163.539 6.49551 163.397 6.49551 163.231V149.456H1.87051C1.70384 149.456 1.56218 149.397 1.44551 149.281C1.32884 149.164 1.27051 149.014 1.27051 148.831V146.956C1.27051 146.772 1.32051 146.622 1.42051 146.506C1.53718 146.389 1.68718 146.331 1.87051 146.331H14.6455C14.8289 146.331 14.9789 146.389 15.0955 146.506C15.2122 146.622 15.2705 146.772 15.2705 146.956V148.831C15.2705 149.014 15.2122 149.164 15.0955 149.281C14.9789 149.397 14.8289 149.456 14.6455 149.456H10.0455V163.231C10.0455 163.397 9.98718 163.539 9.87051 163.656C9.77051 163.772 9.62885 163.831 9.44551 163.831H7.09551ZM16.4465 163.831C16.2799 163.831 16.1382 163.772 16.0215 163.656C15.9049 163.539 15.8465 163.397 15.8465 163.231V151.456C15.8465 151.272 15.9049 151.122 16.0215 151.006C16.1382 150.889 16.2799 150.831 16.4465 150.831H18.4965C18.6799 150.831 18.8299 150.889 18.9465 151.006C19.0632 151.122 19.1215 151.272 19.1215 151.456V152.481C19.9549 151.381 21.1549 150.831 22.7215 150.831H23.7715C23.9549 150.831 24.0965 150.889 24.1965 151.006C24.3132 151.106 24.3715 151.247 24.3715 151.431V153.256C24.3715 153.422 24.3132 153.564 24.1965 153.681C24.0965 153.797 23.9549 153.856 23.7715 153.856H21.7965C21.0132 153.856 20.3965 154.081 19.9465 154.531C19.4965 154.981 19.2715 155.597 19.2715 156.381V163.231C19.2715 163.397 19.2132 163.539 19.0965 163.656C18.9799 163.772 18.8382 163.831 18.6715 163.831H16.4465ZM29.8998 164.081C29.0498 164.081 28.2665 163.914 27.5498 163.581C26.8498 163.231 26.2915 162.764 25.8748 162.181C25.4748 161.597 25.2748 160.956 25.2748 160.256C25.2748 159.122 25.7332 158.206 26.6498 157.506C27.5665 156.806 28.8248 156.331 30.4248 156.081L33.8498 155.581V155.056C33.8498 154.339 33.6665 153.797 33.2998 153.431C32.9332 153.064 32.3498 152.881 31.5498 152.881C30.9998 152.881 30.5582 152.981 30.2248 153.181C29.8915 153.381 29.6165 153.589 29.3998 153.806C29.1998 154.006 29.0665 154.139 28.9998 154.206C28.9332 154.406 28.8082 154.506 28.6248 154.506H26.6748C26.5248 154.506 26.3915 154.456 26.2748 154.356C26.1748 154.256 26.1248 154.122 26.1248 153.956C26.1415 153.539 26.3415 153.072 26.7248 152.556C27.1248 152.022 27.7332 151.564 28.5498 151.181C29.3665 150.781 30.3748 150.581 31.5748 150.581C33.5415 150.581 34.9748 151.022 35.8748 151.906C36.7748 152.789 37.2248 153.947 37.2248 155.381V163.231C37.2248 163.397 37.1665 163.539 37.0498 163.656C36.9498 163.772 36.8082 163.831 36.6248 163.831H34.5498C34.3832 163.831 34.2415 163.772 34.1248 163.656C34.0082 163.539 33.9498 163.397 33.9498 163.231V162.256C33.5832 162.789 33.0665 163.231 32.3998 163.581C31.7332 163.914 30.8998 164.081 29.8998 164.081ZM30.7498 161.681C31.6665 161.681 32.4165 161.381 32.9998 160.781C33.5832 160.181 33.8748 159.314 33.8748 158.181V157.681L31.3748 158.081C29.4582 158.381 28.4998 159.022 28.4998 160.006C28.4998 160.539 28.7165 160.956 29.1498 161.256C29.5998 161.539 30.1332 161.681 30.7498 161.681ZM45.2565 164.081C43.5731 164.081 42.2815 163.547 41.3815 162.481C40.4815 161.397 39.9898 159.956 39.9065 158.156L39.8815 157.331L39.9065 156.506C39.9731 154.739 40.4565 153.314 41.3565 152.231C42.2731 151.131 43.5731 150.581 45.2565 150.581C46.8565 150.581 48.1315 151.131 49.0815 152.231V146.681C49.0815 146.497 49.1398 146.356 49.2565 146.256C49.3731 146.139 49.5148 146.081 49.6815 146.081H51.8565C52.0398 146.081 52.1815 146.139 52.2815 146.256C52.3981 146.356 52.4565 146.497 52.4565 146.681V163.231C52.4565 163.397 52.3981 163.539 52.2815 163.656C52.1815 163.772 52.0398 163.831 51.8565 163.831H49.8315C49.6648 163.831 49.5231 163.772 49.4065 163.656C49.2898 163.539 49.2315 163.397 49.2315 163.231V162.306C48.3148 163.489 46.9898 164.081 45.2565 164.081ZM46.2065 161.381C47.1565 161.381 47.8565 161.081 48.3065 160.481C48.7731 159.864 49.0315 159.106 49.0815 158.206C49.0981 158.006 49.1065 157.689 49.1065 157.256C49.1065 156.806 49.0981 156.481 49.0815 156.281C49.0481 155.447 48.7898 154.739 48.3065 154.156C47.8231 153.572 47.1231 153.281 46.2065 153.281C44.4231 153.281 43.4731 154.381 43.3565 156.581L43.3315 157.331L43.3565 158.081C43.4731 160.281 44.4231 161.381 46.2065 161.381ZM61.4129 164.081C59.5463 164.081 58.0629 163.547 56.9629 162.481C55.8796 161.414 55.3046 159.897 55.2379 157.931L55.2129 157.306C55.2129 155.222 55.7546 153.581 56.8379 152.381C57.9379 151.181 59.4546 150.581 61.3879 150.581C63.3713 150.581 64.8963 151.181 65.9629 152.381C67.0463 153.581 67.5879 155.181 67.5879 157.181V157.706C67.5879 157.872 67.5296 158.014 67.4129 158.131C67.2963 158.247 67.1463 158.306 66.9629 158.306H58.6629V158.506C58.6963 159.439 58.9463 160.214 59.4129 160.831C59.8963 161.431 60.5546 161.731 61.3879 161.731C62.3379 161.731 63.1129 161.347 63.7129 160.581C63.8629 160.397 63.9796 160.289 64.0629 160.256C64.1463 160.206 64.2879 160.181 64.4879 160.181H66.6879C66.8379 160.181 66.9629 160.222 67.0629 160.306C67.1796 160.389 67.2379 160.506 67.2379 160.656C67.2379 161.056 66.9963 161.531 66.5129 162.081C66.0463 162.614 65.3713 163.081 64.4879 163.481C63.6046 163.881 62.5796 164.081 61.4129 164.081ZM64.1379 156.181V156.131C64.1379 155.147 63.8879 154.364 63.3879 153.781C62.9046 153.181 62.2379 152.881 61.3879 152.881C60.5379 152.881 59.8713 153.181 59.3879 153.781C58.9046 154.364 58.6629 155.147 58.6629 156.131V156.181H64.1379ZM74.4953 163.831C74.3453 163.831 74.2203 163.781 74.1203 163.681C74.0203 163.581 73.9703 163.456 73.9703 163.306L74.0203 163.081L80.0203 146.956C80.187 146.539 80.487 146.331 80.9203 146.331H83.6703C84.1037 146.331 84.4037 146.539 84.5703 146.956L90.5703 163.081L90.6203 163.306C90.6203 163.456 90.562 163.581 90.4453 163.681C90.3453 163.781 90.2287 163.831 90.0953 163.831H87.8703C87.5203 163.831 87.2787 163.672 87.1453 163.356L85.9953 160.331H78.5953L77.4453 163.356C77.312 163.672 77.0703 163.831 76.7203 163.831H74.4953ZM79.4703 157.431H85.1203L82.2953 149.731L79.4703 157.431ZM97.5787 164.081C96.3121 164.081 95.2537 163.889 94.4037 163.506C93.5537 163.122 92.9204 162.681 92.5037 162.181C92.1037 161.664 91.9037 161.222 91.9037 160.856C91.9037 160.689 91.9537 160.556 92.0537 160.456C92.1704 160.356 92.3037 160.306 92.4537 160.306H94.5037C94.6371 160.306 94.7537 160.372 94.8537 160.506C94.9371 160.572 95.1204 160.731 95.4037 160.981C95.7037 161.231 96.0371 161.431 96.4037 161.581C96.7871 161.714 97.2037 161.781 97.6537 161.781C98.3204 161.781 98.8621 161.656 99.2787 161.406C99.6954 161.139 99.9037 160.764 99.9037 160.281C99.9037 159.947 99.8037 159.681 99.6037 159.481C99.4204 159.264 99.0787 159.072 98.5787 158.906C98.0954 158.722 97.3621 158.522 96.3787 158.306C94.9621 158.006 93.9121 157.547 93.2287 156.931C92.5621 156.314 92.2287 155.497 92.2287 154.481C92.2287 153.814 92.4287 153.189 92.8287 152.606C93.2287 152.006 93.8204 151.522 94.6037 151.156C95.4037 150.772 96.3537 150.581 97.4537 150.581C98.5871 150.581 99.5621 150.764 100.379 151.131C101.195 151.481 101.812 151.906 102.229 152.406C102.662 152.906 102.879 153.347 102.879 153.731C102.879 153.881 102.82 154.014 102.704 154.131C102.604 154.231 102.479 154.281 102.329 154.281H100.454C100.27 154.281 100.129 154.214 100.029 154.081C99.9121 153.997 99.7204 153.847 99.4537 153.631C99.2037 153.397 98.9204 153.214 98.6037 153.081C98.2871 152.947 97.9037 152.881 97.4537 152.881C96.8371 152.881 96.3621 153.014 96.0287 153.281C95.6954 153.547 95.5287 153.897 95.5287 154.331C95.5287 154.631 95.6037 154.881 95.7537 155.081C95.9204 155.281 96.2454 155.472 96.7287 155.656C97.2121 155.822 97.9371 155.997 98.9037 156.181C101.904 156.764 103.404 158.072 103.404 160.106C103.404 161.289 102.887 162.247 101.854 162.981C100.837 163.714 99.4121 164.081 97.5787 164.081ZM110.909 164.081C109.642 164.081 108.584 163.889 107.734 163.506C106.884 163.122 106.25 162.681 105.834 162.181C105.434 161.664 105.234 161.222 105.234 160.856C105.234 160.689 105.284 160.556 105.384 160.456C105.5 160.356 105.634 160.306 105.784 160.306H107.834C107.967 160.306 108.084 160.372 108.184 160.506C108.267 160.572 108.45 160.731 108.734 160.981C109.034 161.231 109.367 161.431 109.734 161.581C110.117 161.714 110.534 161.781 110.984 161.781C111.65 161.781 112.192 161.656 112.609 161.406C113.025 161.139 113.234 160.764 113.234 160.281C113.234 159.947 113.134 159.681 112.934 159.481C112.75 159.264 112.409 159.072 111.909 158.906C111.425 158.722 110.692 158.522 109.709 158.306C108.292 158.006 107.242 157.547 106.559 156.931C105.892 156.314 105.559 155.497 105.559 154.481C105.559 153.814 105.759 153.189 106.159 152.606C106.559 152.006 107.15 151.522 107.934 151.156C108.734 150.772 109.684 150.581 110.784 150.581C111.917 150.581 112.892 150.764 113.709 151.131C114.525 151.481 115.142 151.906 115.559 152.406C115.992 152.906 116.209 153.347 116.209 153.731C116.209 153.881 116.15 154.014 116.034 154.131C115.934 154.231 115.809 154.281 115.659 154.281H113.784C113.6 154.281 113.459 154.214 113.359 154.081C113.242 153.997 113.05 153.847 112.784 153.631C112.534 153.397 112.25 153.214 111.934 153.081C111.617 152.947 111.234 152.881 110.784 152.881C110.167 152.881 109.692 153.014 109.359 153.281C109.025 153.547 108.859 153.897 108.859 154.331C108.859 154.631 108.934 154.881 109.084 155.081C109.25 155.281 109.575 155.472 110.059 155.656C110.542 155.822 111.267 155.997 112.234 156.181C115.234 156.764 116.734 158.072 116.734 160.106C116.734 161.289 116.217 162.247 115.184 162.981C114.167 163.714 112.742 164.081 110.909 164.081ZM125.064 164.081C123.097 164.081 121.581 163.581 120.514 162.581C119.447 161.581 118.872 160.197 118.789 158.431L118.764 157.331L118.789 156.231C118.872 154.481 119.456 153.106 120.539 152.106C121.622 151.089 123.131 150.581 125.064 150.581C126.981 150.581 128.481 151.089 129.564 152.106C130.647 153.106 131.231 154.481 131.314 156.231C131.331 156.431 131.339 156.797 131.339 157.331C131.339 157.864 131.331 158.231 131.314 158.431C131.231 160.197 130.656 161.581 129.589 162.581C128.522 163.581 127.014 164.081 125.064 164.081ZM125.064 161.556C125.947 161.556 126.622 161.281 127.089 160.731C127.572 160.181 127.831 159.372 127.864 158.306C127.881 158.139 127.889 157.814 127.889 157.331C127.889 156.847 127.881 156.522 127.864 156.356C127.831 155.289 127.572 154.481 127.089 153.931C126.606 153.364 125.931 153.081 125.064 153.081C124.181 153.081 123.497 153.364 123.014 153.931C122.531 154.481 122.272 155.289 122.239 156.356L122.214 157.331L122.239 158.306C122.272 159.372 122.531 160.181 123.014 160.731C123.497 161.281 124.181 161.556 125.064 161.556ZM139.733 164.081C137.9 164.081 136.433 163.572 135.333 162.556C134.25 161.539 133.675 160.131 133.608 158.331L133.583 157.331L133.608 156.331C133.675 154.531 134.25 153.122 135.333 152.106C136.433 151.089 137.9 150.581 139.733 150.581C141.05 150.581 142.158 150.814 143.058 151.281C143.975 151.747 144.65 152.322 145.083 153.006C145.533 153.672 145.775 154.314 145.808 154.931C145.825 155.097 145.767 155.239 145.633 155.356C145.517 155.472 145.375 155.531 145.208 155.531H142.983C142.8 155.531 142.667 155.497 142.583 155.431C142.5 155.347 142.417 155.206 142.333 155.006C142.083 154.372 141.75 153.914 141.333 153.631C140.933 153.347 140.417 153.206 139.783 153.206C138.933 153.206 138.267 153.472 137.783 154.006C137.317 154.539 137.067 155.356 137.033 156.456L137.008 157.381L137.033 158.206C137.133 160.372 138.05 161.456 139.783 161.456C140.433 161.456 140.958 161.322 141.358 161.056C141.758 160.772 142.083 160.306 142.333 159.656C142.4 159.472 142.475 159.339 142.558 159.256C142.658 159.172 142.8 159.131 142.983 159.131H145.208C145.375 159.131 145.517 159.189 145.633 159.306C145.767 159.422 145.825 159.564 145.808 159.731C145.775 160.314 145.542 160.947 145.108 161.631C144.675 162.297 144.008 162.872 143.108 163.356C142.208 163.839 141.083 164.081 139.733 164.081ZM148.915 148.706C148.748 148.706 148.607 148.647 148.49 148.531C148.373 148.414 148.315 148.272 148.315 148.106V146.281C148.315 146.097 148.373 145.947 148.49 145.831C148.607 145.714 148.748 145.656 148.915 145.656H151.215C151.398 145.656 151.548 145.714 151.665 145.831C151.782 145.947 151.84 146.097 151.84 146.281V148.106C151.84 148.272 151.773 148.414 151.64 148.531C151.523 148.647 151.382 148.706 151.215 148.706H148.915ZM149.015 163.831C148.848 163.831 148.707 163.772 148.59 163.656C148.473 163.539 148.415 163.397 148.415 163.231V151.431C148.415 151.247 148.473 151.106 148.59 151.006C148.707 150.889 148.848 150.831 149.015 150.831H151.14C151.307 150.831 151.448 150.889 151.565 151.006C151.682 151.122 151.74 151.264 151.74 151.431V163.231C151.74 163.397 151.682 163.539 151.565 163.656C151.448 163.772 151.307 163.831 151.14 163.831H149.015ZM158.806 164.081C157.956 164.081 157.173 163.914 156.456 163.581C155.756 163.231 155.198 162.764 154.781 162.181C154.381 161.597 154.181 160.956 154.181 160.256C154.181 159.122 154.639 158.206 155.556 157.506C156.473 156.806 157.731 156.331 159.331 156.081L162.756 155.581V155.056C162.756 154.339 162.573 153.797 162.206 153.431C161.839 153.064 161.256 152.881 160.456 152.881C159.906 152.881 159.464 152.981 159.131 153.181C158.798 153.381 158.523 153.589 158.306 153.806C158.106 154.006 157.973 154.139 157.906 154.206C157.839 154.406 157.714 154.506 157.531 154.506H155.581C155.431 154.506 155.298 154.456 155.181 154.356C155.081 154.256 155.031 154.122 155.031 153.956C155.048 153.539 155.248 153.072 155.631 152.556C156.031 152.022 156.639 151.564 157.456 151.181C158.273 150.781 159.281 150.581 160.481 150.581C162.448 150.581 163.881 151.022 164.781 151.906C165.681 152.789 166.131 153.947 166.131 155.381V163.231C166.131 163.397 166.073 163.539 165.956 163.656C165.856 163.772 165.714 163.831 165.531 163.831H163.456C163.289 163.831 163.148 163.772 163.031 163.656C162.914 163.539 162.856 163.397 162.856 163.231V162.256C162.489 162.789 161.973 163.231 161.306 163.581C160.639 163.914 159.806 164.081 158.806 164.081ZM159.656 161.681C160.573 161.681 161.323 161.381 161.906 160.781C162.489 160.181 162.781 159.314 162.781 158.181V157.681L160.281 158.081C158.364 158.381 157.406 159.022 157.406 160.006C157.406 160.539 157.623 160.956 158.056 161.256C158.506 161.539 159.039 161.681 159.656 161.681ZM175.116 163.831C173.599 163.831 172.457 163.439 171.691 162.656C170.924 161.856 170.541 160.689 170.541 159.156V153.506H168.566C168.399 153.506 168.257 153.447 168.141 153.331C168.024 153.214 167.966 153.072 167.966 152.906V151.431C167.966 151.264 168.024 151.122 168.141 151.006C168.257 150.889 168.399 150.831 168.566 150.831H170.541V146.681C170.541 146.497 170.599 146.356 170.716 146.256C170.832 146.139 170.974 146.081 171.141 146.081H173.216C173.399 146.081 173.541 146.139 173.641 146.256C173.757 146.356 173.816 146.497 173.816 146.681V150.831H176.941C177.107 150.831 177.249 150.889 177.366 151.006C177.482 151.122 177.541 151.264 177.541 151.431V152.906C177.541 153.072 177.482 153.214 177.366 153.331C177.249 153.447 177.107 153.506 176.941 153.506H173.816V158.881C173.816 159.597 173.941 160.139 174.191 160.506C174.441 160.872 174.849 161.056 175.416 161.056H177.166C177.349 161.056 177.491 161.114 177.591 161.231C177.707 161.331 177.766 161.472 177.766 161.656V163.231C177.766 163.397 177.707 163.539 177.591 163.656C177.491 163.772 177.349 163.831 177.166 163.831H175.116ZM180.482 148.706C180.316 148.706 180.174 148.647 180.057 148.531C179.941 148.414 179.882 148.272 179.882 148.106V146.281C179.882 146.097 179.941 145.947 180.057 145.831C180.174 145.714 180.316 145.656 180.482 145.656H182.782C182.966 145.656 183.116 145.714 183.232 145.831C183.349 145.947 183.407 146.097 183.407 146.281V148.106C183.407 148.272 183.341 148.414 183.207 148.531C183.091 148.647 182.949 148.706 182.782 148.706H180.482ZM180.582 163.831C180.416 163.831 180.274 163.772 180.157 163.656C180.041 163.539 179.982 163.397 179.982 163.231V151.431C179.982 151.247 180.041 151.106 180.157 151.006C180.274 150.889 180.416 150.831 180.582 150.831H182.707C182.874 150.831 183.016 150.889 183.132 151.006C183.249 151.122 183.307 151.264 183.307 151.431V163.231C183.307 163.397 183.249 163.539 183.132 163.656C183.016 163.772 182.874 163.831 182.707 163.831H180.582ZM192.373 164.081C190.407 164.081 188.89 163.581 187.823 162.581C186.757 161.581 186.182 160.197 186.098 158.431L186.073 157.331L186.098 156.231C186.182 154.481 186.765 153.106 187.848 152.106C188.932 151.089 190.44 150.581 192.373 150.581C194.29 150.581 195.79 151.089 196.873 152.106C197.957 153.106 198.54 154.481 198.623 156.231C198.64 156.431 198.648 156.797 198.648 157.331C198.648 157.864 198.64 158.231 198.623 158.431C198.54 160.197 197.965 161.581 196.898 162.581C195.832 163.581 194.323 164.081 192.373 164.081ZM192.373 161.556C193.257 161.556 193.932 161.281 194.398 160.731C194.882 160.181 195.14 159.372 195.173 158.306C195.19 158.139 195.198 157.814 195.198 157.331C195.198 156.847 195.19 156.522 195.173 156.356C195.14 155.289 194.882 154.481 194.398 153.931C193.915 153.364 193.24 153.081 192.373 153.081C191.49 153.081 190.807 153.364 190.323 153.931C189.84 154.481 189.582 155.289 189.548 156.356L189.523 157.331L189.548 158.306C189.582 159.372 189.84 160.181 190.323 160.731C190.807 161.281 191.49 161.556 192.373 161.556ZM202.018 163.831C201.851 163.831 201.709 163.772 201.593 163.656C201.476 163.539 201.418 163.397 201.418 163.231V151.431C201.418 151.247 201.476 151.106 201.593 151.006C201.709 150.889 201.851 150.831 202.018 150.831H204.093C204.276 150.831 204.418 150.889 204.518 151.006C204.634 151.106 204.693 151.247 204.693 151.431V152.456C205.709 151.206 207.101 150.581 208.868 150.581C210.401 150.581 211.618 151.081 212.518 152.081C213.418 153.081 213.868 154.456 213.868 156.206V163.231C213.868 163.397 213.809 163.539 213.693 163.656C213.593 163.772 213.451 163.831 213.268 163.831H211.018C210.851 163.831 210.709 163.772 210.593 163.656C210.476 163.539 210.418 163.397 210.418 163.231V156.356C210.418 155.389 210.176 154.639 209.693 154.106C209.226 153.556 208.551 153.281 207.668 153.281C206.818 153.281 206.134 153.556 205.618 154.106C205.101 154.656 204.843 155.406 204.843 156.356V163.231C204.843 163.397 204.784 163.539 204.668 163.656C204.568 163.772 204.426 163.831 204.243 163.831H202.018ZM223.631 163.831C223.465 163.831 223.323 163.772 223.206 163.656C223.09 163.539 223.031 163.397 223.031 163.231V146.956C223.031 146.772 223.081 146.622 223.181 146.506C223.298 146.389 223.448 146.331 223.631 146.331H234.506C234.69 146.331 234.84 146.389 234.956 146.506C235.073 146.622 235.131 146.772 235.131 146.956V148.756C235.131 148.922 235.073 149.064 234.956 149.181C234.84 149.297 234.69 149.356 234.506 149.356H226.506V154.056H234.006C234.19 154.056 234.34 154.114 234.456 154.231C234.573 154.347 234.631 154.489 234.631 154.656V156.456C234.631 156.622 234.573 156.764 234.456 156.881C234.34 156.997 234.19 157.056 234.006 157.056H226.506V163.231C226.506 163.397 226.448 163.539 226.331 163.656C226.215 163.772 226.065 163.831 225.881 163.831H223.631ZM243.301 164.081C241.335 164.081 239.818 163.581 238.751 162.581C237.685 161.581 237.11 160.197 237.026 158.431L237.001 157.331L237.026 156.231C237.11 154.481 237.693 153.106 238.776 152.106C239.86 151.089 241.368 150.581 243.301 150.581C245.218 150.581 246.718 151.089 247.801 152.106C248.885 153.106 249.468 154.481 249.551 156.231C249.568 156.431 249.576 156.797 249.576 157.331C249.576 157.864 249.568 158.231 249.551 158.431C249.468 160.197 248.893 161.581 247.826 162.581C246.76 163.581 245.251 164.081 243.301 164.081ZM243.301 161.556C244.185 161.556 244.86 161.281 245.326 160.731C245.81 160.181 246.068 159.372 246.101 158.306C246.118 158.139 246.126 157.814 246.126 157.331C246.126 156.847 246.118 156.522 246.101 156.356C246.068 155.289 245.81 154.481 245.326 153.931C244.843 153.364 244.168 153.081 243.301 153.081C242.418 153.081 241.735 153.364 241.251 153.931C240.768 154.481 240.51 155.289 240.476 156.356L240.451 157.331L240.476 158.306C240.51 159.372 240.768 160.181 241.251 160.731C241.735 161.281 242.418 161.556 243.301 161.556ZM252.946 163.831C252.779 163.831 252.637 163.772 252.521 163.656C252.404 163.539 252.346 163.397 252.346 163.231V151.456C252.346 151.272 252.404 151.122 252.521 151.006C252.637 150.889 252.779 150.831 252.946 150.831H254.996C255.179 150.831 255.329 150.889 255.446 151.006C255.562 151.122 255.621 151.272 255.621 151.456V152.481C256.454 151.381 257.654 150.831 259.221 150.831H260.271C260.454 150.831 260.596 150.889 260.696 151.006C260.812 151.106 260.871 151.247 260.871 151.431V153.256C260.871 153.422 260.812 153.564 260.696 153.681C260.596 153.797 260.454 153.856 260.271 153.856H258.296C257.512 153.856 256.896 154.081 256.446 154.531C255.996 154.981 255.771 155.597 255.771 156.381V163.231C255.771 163.397 255.712 163.539 255.596 163.656C255.479 163.772 255.337 163.831 255.171 163.831H252.946ZM267.644 164.081C266.111 164.081 264.903 163.581 264.019 162.581C263.136 161.581 262.694 160.206 262.694 158.456V151.431C262.694 151.247 262.753 151.106 262.869 151.006C262.986 150.889 263.128 150.831 263.294 150.831H265.544C265.711 150.831 265.853 150.889 265.969 151.006C266.086 151.122 266.144 151.264 266.144 151.431V158.306C266.144 160.356 267.036 161.381 268.819 161.381C269.686 161.381 270.369 161.106 270.869 160.556C271.386 160.006 271.644 159.256 271.644 158.306V151.431C271.644 151.247 271.703 151.106 271.819 151.006C271.936 150.889 272.078 150.831 272.244 150.831H274.469C274.653 150.831 274.794 150.889 274.894 151.006C275.011 151.106 275.069 151.247 275.069 151.431V163.231C275.069 163.397 275.011 163.539 274.894 163.656C274.794 163.772 274.653 163.831 274.469 163.831H272.394C272.228 163.831 272.086 163.772 271.969 163.656C271.853 163.539 271.794 163.397 271.794 163.231V162.206C270.878 163.456 269.494 164.081 267.644 164.081ZM278.971 163.831C278.804 163.831 278.663 163.772 278.546 163.656C278.429 163.539 278.371 163.397 278.371 163.231V151.431C278.371 151.247 278.429 151.106 278.546 151.006C278.663 150.889 278.804 150.831 278.971 150.831H280.946C281.129 150.831 281.271 150.889 281.371 151.006C281.488 151.106 281.546 151.247 281.546 151.431V152.281C282.446 151.147 283.654 150.581 285.171 150.581C287.021 150.581 288.313 151.322 289.046 152.806C289.446 152.139 290.013 151.606 290.746 151.206C291.479 150.789 292.271 150.581 293.121 150.581C294.488 150.581 295.604 151.047 296.471 151.981C297.338 152.914 297.771 154.272 297.771 156.056V163.231C297.771 163.397 297.713 163.539 297.596 163.656C297.496 163.772 297.354 163.831 297.171 163.831H295.096C294.929 163.831 294.788 163.772 294.671 163.656C294.554 163.539 294.496 163.397 294.496 163.231V156.256C294.496 155.206 294.271 154.447 293.821 153.981C293.388 153.514 292.813 153.281 292.096 153.281C291.446 153.281 290.888 153.522 290.421 154.006C289.971 154.472 289.746 155.222 289.746 156.256V163.231C289.746 163.397 289.688 163.539 289.571 163.656C289.471 163.772 289.329 163.831 289.146 163.831H287.046C286.879 163.831 286.738 163.772 286.621 163.656C286.504 163.539 286.446 163.397 286.446 163.231V156.256C286.446 155.222 286.221 154.472 285.771 154.006C285.321 153.522 284.746 153.281 284.046 153.281C283.396 153.281 282.838 153.522 282.371 154.006C281.921 154.472 281.696 155.222 281.696 156.256V163.231C281.696 163.397 281.638 163.539 281.521 163.656C281.421 163.772 281.279 163.831 281.096 163.831H278.971Z" fill="#002A5E"/>
</g>
<defs>
<clipPath id="clip0_1017_855">
<rect width="300" height="165" fill="white"/>
</clipPath>
</defs>
</svg>
